<?xml version="1.0" encoding="utf-8"?>
<!-- Generator: Adobe Illustrator 25.2.1, SVG Export Plug-In . SVG Version: 6.00 Build 0)  -->
<svg version="1.1" id="Layer_1" xmlns="http://www.w3.org/2000/svg" xmlns:xlink="http://www.w3.org/1999/xlink" x="0px" y="0px"
	 width="160px" height="160px" viewBox="0 0 160 160" style="enable-background:new 0 0 160 160;" xml:space="preserve">
<style type="text/css">
	.st0{fill:#ED205B;}
	.st1{fill:#EC1557;}
	.st2{fill:#7053A2;}
	.st3{fill:#5D51A1;}
	.st4{fill:#78509F;}
	.st5{fill:#EC1C58;}
	.st6{fill:#74489B;}
	.st7{fill:#7B55A2;}
	.st8{fill:#E31B4A;}
	.st9{fill:#D61F2C;}
	.st10{fill:#E61D2F;}
	.st11{fill:#2E4756;}
	.st12{fill:none;stroke:#921F2D;stroke-width:2;stroke-miterlimit:10;}
	.st13{fill:#FFFFFF;}
</style>
<g>
	<path class="st0" d="M21.5,54.1c0,0,0.2,16.8,72.7,20.6c72.5,3.8,54.6,81.9,54.6,81.9s10.1-52-65.3-52.3
		C18.2,101.1,21.5,54.1,21.5,54.1z"/>
	<g>
		<g>
			<path class="st1" d="M21.5,54.1C21.5,54.1,21.5,54.1,21.5,54.1c0,0.7,1.8,36.3,61.6,37.2c60.4,1,69.3,46.6,65.8,64.2
				c-0.1,0.7-0.2,1-0.2,1s10.1-52-65.3-52.3C18.2,101.1,21.5,54.1,21.5,54.1z"/>
		</g>
	</g>
	<path class="st2" d="M21.4,52c0,0,15.8,13.6,64.3,2.7c54.1-5.6,72.4,34.9,70.2,60.2c0,0-7.9-49.8-74.7-32.3
		C19.2,86.1,21.4,52,21.4,52z"/>
	<path class="st3" d="M81.4,82.1C25,85.4,21.7,57.6,21.5,52.4C26.1,64,41.2,74,82.5,66.3c67.3-12.5,73.5,48.1,73.5,48.1
		S148.1,64.7,81.4,82.1z"/>
	<path class="st4" d="M136,58.4c0,0-22.9-24.7-60.5-2.3c-37.6,22.4-54.1-2-54.1-2s8.6-33,63-30.3C127.6,29.4,136,58.4,136,58.4z"/>
	<path class="st5" d="M82.9,2.8c0,0,11.2,28.8-26.2,36.9c-37.4,8.1-34.6,17.8-34.6,17.8s-7.2-22.6,27-34
		C83.4,12.1,82.9,2.8,82.9,2.8z"/>
	<g>
		<path class="st6" d="M81.9,23.7c-3.4,6.5-10.6,12.8-25.1,15.9C30,45.4,23.8,52,22.5,55.3c-0.4-0.5-0.7-0.9-0.9-1.1
			c0-0.1,0-0.2,0-0.3C22.4,51.2,32.3,22.3,81.9,23.7z"/>
	</g>
	<g>
		<g>
			<path class="st7" d="M75.5,56.1C44.6,74.6,27.9,61.3,23,56c23.9,5.6,48.8-12.7,48.8-12.7C116.9,25.5,136,58.4,136,58.4
				S113.1,33.7,75.5,56.1z"/>
		</g>
	</g>
	<g>
		<path class="st3" d="M22,52.4c3,2,17.4,10.1,52,4.5c-35.3,20.2-51.4-1.2-52.6-2.7c0-0.1,0-0.2,0-0.2C21.5,53.7,21.7,53.2,22,52.4z
			"/>
	</g>
	<g>
		<path class="st8" d="M94.2,74.8c9.4,0.5,17.3,2.2,23.9,4.9c-9.7-1.6-21.7-1-36.7,2.9c-51.1,2.9-58.6-19.7-59.7-27.7
			C22.6,58,30.4,71.4,94.2,74.8z"/>
	</g>
</g>
<circle class="st9" cx="86.4" cy="73.6" r="44.7"/>
<path class="st10" d="M118.1,105.2c-57.2-24.6-4.9-37.9-63.2-63.2c17.5-17.5,45.8-17.5,63.2,0S135.5,87.7,118.1,105.2z"/>
<path class="st11" d="M52.9,107.1c-18.5-18.5-18.5-48.6,0-67.1s48.6-18.5,67.1,0s18.5,48.6,0,67.1S71.4,125.6,52.9,107.1z
	 M116.1,43.9c-16.4-16.4-43-16.4-59.3,0s-16.4,43,0,59.3s43,16.4,59.3,0S132.5,60.2,116.1,43.9z"/>
<g>
	<path class="st12" d="M68.7,76.1c1-0.2,1.5-2.5,5.5-2.6c4.5-0.2,6,4.3,8.8,3.3c-0.9,3.5-2.7,5.8-6.1,6.2
		C71.2,83.3,71.3,76.7,68.7,76.1z"/>
	<path class="st12" d="M106.3,76.1c-1-0.2-1.5-2.5-5.5-2.6c-4.5-0.2-6,4.3-8.8,3.3c0.9,3.5,2.7,5.8,6.1,6.2
		C103.8,83.3,103.8,76.7,106.3,76.1z"/>
	<g>
		<path class="st12" d="M88.2,81.4c-0.5-0.7-0.9-0.7-1-0.7c-0.1,0-0.5,0-1,0.7c-0.6,0.8-2,2.7-2.1,3.3c-0.1,0.6-0.3,2.2,0.2,2.6
			c0.5,0.4,1.9,1.1,2.9,0.1c1.1,1,2.4,0.3,2.9-0.1c0.6-0.4,0.4-2,0.2-2.6C90.2,84.1,88.8,82.2,88.2,81.4z"/>
		<path class="st12" d="M110.1,68.1c1.4-5.7-1.7-23.5-22.6-24.9C67.2,44.3,63.7,60.4,64.6,68c-6.3,1.8-5,7.9-5,7.9
			s6.4,13.6,7.8,16.2c3.5,4.3,8.4,2.1,8.4,2.1L75,97.4l0.2,2c0,0,1.5,3.4,6.5,2.6c2.7,1.8,5.3,0.2,5.3,0.2s3.5,1.4,5.8-0.3
			c3.8,1,6.3-2.4,6.3-2.4l0.1-2l-0.7-3c0,0,6.8,1.2,8.8-2.8c2-4,5.9-11.6,7.5-16.4C114.9,74.6,115.6,69.9,110.1,68.1z M110.5,76.6
			l-6,12.8c0,0-1.4,3-5.1,1.6c-1.2-0.8-5.4-3-5.4-3s1.6,8.3,1.6,9.8c-1.2,1.5-3.2,0.6-3.2,0.6l-1.7-6.7c0,0,0.5,6.7,0.4,7.4
			c-1.9,0.7-3.3-0.3-3.3-0.3l-0.6-7c0,0-0.7,6.4-1,7c-1.3,1.2-3.1,0.1-3.1,0.1l0.6-7.7c0,0-1.5,7-1.8,7.3c-2.4,0.6-3.2-0.6-3.2-0.6
			l1.4-9.8c0,0-3.6,2.2-5.1,2.9c-4,1.6-5.6-2.1-5.6-2.1l-6.3-13.6c0,0-1.2-3.5,3.1-4.5c6.3-2.1,12.7,0.8,12.7,0.8s-4.2-5.5-11-6.5
			c0-6.5,5.4-17.8,19.5-18.4c14.5,1.2,19.3,11.9,19.3,18.1c-5.7,0.6-11.2,6.7-11.2,6.7s6.2-2.8,12.1-0.5
			C113.3,72.8,110.5,76.6,110.5,76.6z"/>
	</g>
</g>
<g>
	<path class="st13" d="M68.7,76.1c1-0.2,1.5-2.5,5.5-2.6c4.5-0.2,6,4.3,8.8,3.3c-0.9,3.5-2.7,5.8-6.1,6.2
		C71.2,83.3,71.3,76.7,68.7,76.1z"/>
	<path class="st13" d="M106.3,76.1c-1-0.2-1.5-2.5-5.5-2.6c-4.5-0.2-6,4.3-8.8,3.3c0.9,3.5,2.7,5.8,6.1,6.2
		C103.8,83.3,103.8,76.7,106.3,76.1z"/>
	<g>
		<path class="st13" d="M88.2,81.4c-0.5-0.7-0.9-0.7-1-0.7c-0.1,0-0.5,0-1,0.7c-0.6,0.8-2,2.7-2.1,3.3c-0.1,0.6-0.3,2.2,0.2,2.6
			c0.5,0.4,1.9,1.1,2.9,0.1c1.1,1,2.4,0.3,2.9-0.1c0.6-0.4,0.4-2,0.2-2.6C90.2,84.1,88.8,82.2,88.2,81.4z"/>
		<path class="st13" d="M110.1,68.1c1.4-5.7-1.7-23.5-22.6-24.9C67.2,44.3,63.7,60.4,64.6,68c-6.3,1.8-5,7.9-5,7.9
			s6.4,13.6,7.8,16.2c3.5,4.3,8.4,2.1,8.4,2.1L75,97.4l0.2,2c0,0,1.5,3.4,6.5,2.6c2.7,1.8,5.3,0.2,5.3,0.2s3.5,1.4,5.8-0.3
			c3.8,1,6.3-2.4,6.3-2.4l0.1-2l-0.7-3c0,0,6.8,1.2,8.8-2.8c2-4,5.9-11.6,7.5-16.4C114.9,74.6,115.6,69.9,110.1,68.1z M110.5,76.6
			l-6,12.8c0,0-1.4,3-5.1,1.6c-1.2-0.8-5.4-3-5.4-3s1.6,8.3,1.6,9.8c-1.2,1.5-3.2,0.6-3.2,0.6l-1.7-6.7c0,0,0.5,6.7,0.4,7.4
			c-1.9,0.7-3.3-0.3-3.3-0.3l-0.6-7c0,0-0.7,6.4-1,7c-1.3,1.2-3.1,0.1-3.1,0.1l0.6-7.7c0,0-1.5,7-1.8,7.3c-2.4,0.6-3.2-0.6-3.2-0.6
			l1.4-9.8c0,0-3.6,2.2-5.1,2.9c-4,1.6-5.6-2.1-5.6-2.1l-6.3-13.6c0,0-1.2-3.5,3.1-4.5c6.3-2.1,12.7,0.8,12.7,0.8s-4.2-5.5-11-6.5
			c0-6.5,5.4-17.8,19.5-18.4c14.5,1.2,19.3,11.9,19.3,18.1c-5.7,0.6-11.2,6.7-11.2,6.7s6.2-2.8,12.1-0.5
			C113.3,72.8,110.5,76.6,110.5,76.6z"/>
	</g>
</g>
</svg>
