<?xml version="1.0" encoding="utf-8"?>
<!-- Generator: Adobe Illustrator 25.2.1, SVG Export Plug-In . SVG Version: 6.00 Build 0)  -->
<svg version="1.1" id="Layer_1" xmlns="http://www.w3.org/2000/svg" xmlns:xlink="http://www.w3.org/1999/xlink" x="0px" y="0px"
	 width="255px" height="255px" viewBox="0 0 255 255" style="enable-background:new 0 0 255 255;" xml:space="preserve">
<style type="text/css">
	.st0{fill:#F18C15;}
	.st1{filter:url(#Adobe_OpacityMaskFilter);}
	.st2{filter:url(#Adobe_OpacityMaskFilter_1_);}
	.st3{mask:url(#SVGID_1_);fill:url(#SVGID_2_);}
	.st4{fill:url(#SVGID_3_);}
	.st5{fill:#E7358A;}
	.st6{filter:url(#Adobe_OpacityMaskFilter_2_);}
	.st7{filter:url(#Adobe_OpacityMaskFilter_3_);}
	.st8{mask:url(#SVGID_4_);fill:url(#SVGID_5_);}
	.st9{fill:url(#SVGID_6_);}
	.st10{fill:#E4094D;}
	.st11{fill:url(#SVGID_7_);}
	.st12{fill:url(#SVGID_8_);}
	.st13{filter:url(#Adobe_OpacityMaskFilter_4_);}
	.st14{filter:url(#Adobe_OpacityMaskFilter_5_);}
	.st15{mask:url(#SVGID_9_);fill:url(#SVGID_10_);}
	.st16{fill:url(#SVGID_11_);}
	.st17{fill:#DC0256;}
	.st18{fill:#F9B300;}
	.st19{fill:#E62D88;}
	.st20{fill:#EE7900;}
	.st21{fill:#F39500;}
	.st22{fill:#334656;}
	.st23{fill:none;stroke:#E74D13;stroke-width:5;stroke-miterlimit:10;}
	.st24{fill:#FFFFFF;}
</style>
<g>
	<path class="st0" d="M236.9,86.7c0,0-0.2,27.4-118.2,33.5C0.7,126.3,30,253.4,30,253.4s-16.4-84.6,106.2-85.1
		C242.3,163.1,236.9,86.7,236.9,86.7z"/>
	<g>
		<defs>
			<filter id="Adobe_OpacityMaskFilter" filterUnits="userSpaceOnUse" x="28.6" y="86.7" width="208.4" height="166.7">
				<feFlood  style="flood-color:white;flood-opacity:1" result="back"/>
				<feBlend  in="SourceGraphic" in2="back" mode="normal"/>
			</filter>
		</defs>
		<mask maskUnits="userSpaceOnUse" x="28.6" y="86.7" width="208.4" height="166.7" id="SVGID_1_">
			<g class="st1">
				<defs>
					<filter id="Adobe_OpacityMaskFilter_1_" filterUnits="userSpaceOnUse" x="28.6" y="86.7" width="208.4" height="166.7">
						<feFlood  style="flood-color:white;flood-opacity:1" result="back"/>
						<feBlend  in="SourceGraphic" in2="back" mode="normal"/>
					</filter>
				</defs>
				<mask maskUnits="userSpaceOnUse" x="28.6" y="86.7" width="208.4" height="166.7" id="SVGID_1_">
					<g class="st2">
					</g>
				</mask>
				<linearGradient id="SVGID_2_" gradientUnits="userSpaceOnUse" x1="240.6944" y1="134.2701" x2="103.9786" y2="179.8422">
					<stop  offset="0" style="stop-color:#FFFFFF"/>
					<stop  offset="1" style="stop-color:#000000"/>
				</linearGradient>
				<path class="st3" d="M236.9,86.7C236.9,86.7,236.9,86.7,236.9,86.7c-0.1,1.2-2.9,59-100.2,60.6C38.5,148.8,24.1,223,29.6,251.7
					c0.2,1.1,0.4,1.7,0.4,1.7s-16.4-84.6,106.2-85.1C242.3,163.1,236.9,86.7,236.9,86.7z"/>
			</g>
		</mask>
		<linearGradient id="SVGID_3_" gradientUnits="userSpaceOnUse" x1="240.6944" y1="134.2701" x2="103.9786" y2="179.8422">
			<stop  offset="0" style="stop-color:#F6A851"/>
			<stop  offset="1" style="stop-color:#F6A851"/>
		</linearGradient>
		<path class="st4" d="M236.9,86.7C236.9,86.7,236.9,86.7,236.9,86.7c-0.1,1.2-2.9,59-100.2,60.6C38.5,148.8,24.1,223,29.6,251.7
			c0.2,1.1,0.4,1.7,0.4,1.7s-16.4-84.6,106.2-85.1C242.3,163.1,236.9,86.7,236.9,86.7z"/>
	</g>
	<path class="st5" d="M236.9,83.2c0,0-25.7,22-104.6,4.4c-87.9-9.1-117.7,56.8-114.2,97.8c0,0,12.9-81,121.4-52.5
		C240.5,138.6,236.9,83.2,236.9,83.2z"/>
	<defs>
		<filter id="Adobe_OpacityMaskFilter_2_" filterUnits="userSpaceOnUse" x="18" y="83.9" width="218.8" height="100.9">
			<feFlood  style="flood-color:white;flood-opacity:1" result="back"/>
			<feBlend  in="SourceGraphic" in2="back" mode="normal"/>
		</filter>
	</defs>
	<mask maskUnits="userSpaceOnUse" x="18" y="83.9" width="218.8" height="100.9" id="SVGID_4_">
		<g class="st6">
			<defs>
				<filter id="Adobe_OpacityMaskFilter_3_" filterUnits="userSpaceOnUse" x="18" y="83.9" width="218.8" height="100.9">
					<feFlood  style="flood-color:white;flood-opacity:1" result="back"/>
					<feBlend  in="SourceGraphic" in2="back" mode="normal"/>
				</filter>
			</defs>
			<mask maskUnits="userSpaceOnUse" x="18" y="83.9" width="218.8" height="100.9" id="SVGID_4_">
				<g class="st7">
				</g>
			</mask>
			<linearGradient id="SVGID_5_" gradientUnits="userSpaceOnUse" x1="18.0434" y1="134.2993" x2="236.8124" y2="134.2993">
				<stop  offset="0" style="stop-color:#FFFFFF"/>
				<stop  offset="1" style="stop-color:#000000"/>
			</linearGradient>
			<path class="st8" d="M139.5,132.2c91.6,5.3,97.1-39.9,97.3-48.3c-7.4,18.8-31.9,35-99.2,22.6C28.3,86.2,18,184.7,18,184.7
				S30.9,103.8,139.5,132.2z"/>
		</g>
	</mask>
	<linearGradient id="SVGID_6_" gradientUnits="userSpaceOnUse" x1="18.0434" y1="134.2993" x2="236.8124" y2="134.2993">
		<stop  offset="0" style="stop-color:#E85B9B"/>
		<stop  offset="1" style="stop-color:#E7358A"/>
	</linearGradient>
	<path class="st9" d="M139.5,132.2c91.6,5.3,97.1-39.9,97.3-48.3c-7.4,18.8-31.9,35-99.2,22.6C28.3,86.2,18,184.7,18,184.7
		S30.9,103.8,139.5,132.2z"/>
	<path class="st10" d="M50.6,93.6c0,0,37.3-40.2,98.4-3.7c61.1,36.5,87.9-3.2,87.9-3.2S223,33,134.4,37.3
		C64.3,46.4,50.6,93.6,50.6,93.6z"/>
	<linearGradient id="SVGID_7_" gradientUnits="userSpaceOnUse" x1="134.3645" y1="47.5612" x2="236.8867" y2="47.5612">
		<stop  offset="0" style="stop-color:#C53B8D"/>
		<stop  offset="1" style="stop-color:#654292"/>
	</linearGradient>
	<path class="st11" d="M136.9,3.1c0,0-18.2,46.8,42.6,60C240.4,76.2,235.8,92,235.8,92s11.8-36.7-44-55.2
		C136.1,18.3,136.9,3.1,136.9,3.1z"/>
	<g>
		<linearGradient id="SVGID_8_" gradientUnits="userSpaceOnUse" x1="119.2669" y1="17.3048" x2="230.2524" y2="81.1081">
			<stop  offset="0" style="stop-color:#C53B8D"/>
			<stop  offset="1" style="stop-color:#59388D"/>
		</linearGradient>
		<path class="st12" d="M138.8,37.2c5.5,10.6,17.2,20.8,40.9,25.9c43.6,9.4,53.6,20.2,55.8,25.5c0.7-0.8,1.2-1.5,1.4-1.8
			c0-0.2,0-0.3,0-0.5C235.6,81.9,219.5,34.9,138.8,37.2z"/>
	</g>
	<g>
		<defs>
			<filter id="Adobe_OpacityMaskFilter_4_" filterUnits="userSpaceOnUse" x="50.6" y="60.4" width="183.7" height="44.8">
				<feFlood  style="flood-color:white;flood-opacity:1" result="back"/>
				<feBlend  in="SourceGraphic" in2="back" mode="normal"/>
			</filter>
		</defs>
		<mask maskUnits="userSpaceOnUse" x="50.6" y="60.4" width="183.7" height="44.8" id="SVGID_9_">
			<g class="st13">
				<defs>
					<filter id="Adobe_OpacityMaskFilter_5_" filterUnits="userSpaceOnUse" x="50.6" y="60.4" width="183.7" height="44.8">
						<feFlood  style="flood-color:white;flood-opacity:1" result="back"/>
						<feBlend  in="SourceGraphic" in2="back" mode="normal"/>
					</filter>
				</defs>
				<mask maskUnits="userSpaceOnUse" x="50.6" y="60.4" width="183.7" height="44.8" id="SVGID_9_">
					<g class="st14">
					</g>
				</mask>
				<linearGradient id="SVGID_10_" gradientUnits="userSpaceOnUse" x1="50.6073" y1="82.8462" x2="234.3506" y2="82.8462">
					<stop  offset="0" style="stop-color:#FFFFFF"/>
					<stop  offset="1" style="stop-color:#000000"/>
				</linearGradient>
				<path class="st15" d="M149,89.8c50.4,30,77.4,8.4,85.4-0.1C195.5,98.9,154.9,69,154.9,69C81.7,40.1,50.6,93.6,50.6,93.6
					S87.9,53.4,149,89.8z"/>
			</g>
		</mask>
		<linearGradient id="SVGID_11_" gradientUnits="userSpaceOnUse" x1="50.6073" y1="82.8462" x2="234.3506" y2="82.8462">
			<stop  offset="0" style="stop-color:#E63254"/>
			<stop  offset="1" style="stop-color:#E51456"/>
		</linearGradient>
		<path class="st16" d="M149,89.8c50.4,30,77.4,8.4,85.4-0.1C195.5,98.9,154.9,69,154.9,69C81.7,40.1,50.6,93.6,50.6,93.6
			S87.9,53.4,149,89.8z"/>
	</g>
	<g>
		<g>
			<path class="st17" d="M236,83.9c-4.9,3.3-28.3,16.5-84.6,7.3c57.4,32.9,83.7-1.9,85.5-4.4c0-0.1,0-0.3,0-0.4
				C236.8,86,236.5,85.1,236,83.9z"/>
		</g>
	</g>
	<path class="st18" d="M141.9,167.9c-5.2-1-10.6-2.2-16.4-3.6C52,147,37.2,168.7,36.4,170c-0.1,0.1-0.1,0.3-0.2,0.4
		c-0.5,1.2-2.2,5.2-3.8,10.2c-1.5,4.8-2.6,9.6-3.5,14.4c0,0.3-2.4,18.9,0.5,43.4c1.8-24.3,17-69.7,106.7-70.1
		C138.1,168.2,140,168.1,141.9,167.9z"/>
	<g>
		<g>
			<path class="st19" d="M118.6,120.2c-15.3,0.8-28.1,3.7-38.8,8c15.7-2.5,35.3-1.7,59.7,4.7c83.1,4.8,95.3-32,97.1-45.1
				C235,93,222.4,114.8,118.6,120.2z"/>
		</g>
	</g>
</g>
<g>
	<circle class="st20" cx="138.5" cy="116.4" r="71.8"/>
	<path class="st21" d="M189.3,167.2c-91.9-39.5-7.9-60.8-101.6-101.6c28.1-28.1,73.5-28.1,101.6,0S217.4,139.1,189.3,167.2z"/>
	<path class="st22" d="M84.6,170.3c-29.7-29.7-29.7-78.1,0-107.8s78.1-29.7,107.8,0s29.7,78.1,0,107.8S114.3,200,84.6,170.3z
		 M186.2,68.7c-26.3-26.3-69-26.3-95.3,0s-26.3,69,0,95.3s69,26.3,95.3,0S212.5,95,186.2,68.7z"/>
	<g>
		<path class="st23" d="M107.4,105.4c0,0,13.7-4.3,20.1-6.1c1.4-11,0-30.8,0-30.8S107,72,102.8,101.9c-0.9,0.2-3,2.6-3,2.6l-0.3,9.9
			l2.3,1.4c0,0,0.3,18.7-4.8,31c17,4.3,27.9,12,27.9,12s2.2-29.2,3-50.5c-9.2,2.2-20.4,3.5-20.4,3.5L107.4,105.4z M107.4,140.7
			c-1.2,0-2.2-1-2.2-2.2c0-1.2,1-2.2,2.2-2.2c1.2,0,2.2,1,2.2,2.2C109.5,139.7,108.6,140.7,107.4,140.7z M121,116.7
			c1.9,0,3.5,1.6,3.5,3.5c0,1.9-1.6,3.5-3.5,3.5c-1.9,0-3.5-1.6-3.5-3.5C117.5,118.2,119.1,116.7,121,116.7z M119.1,138.2
			c1.9,0,3.4,1.5,3.4,3.4c0,1.9-1.5,3.4-3.4,3.4s-3.4-1.5-3.4-3.4C115.6,139.7,117.2,138.2,119.1,138.2z M108.6,119.3
			c1.2,0,2.1,0.9,2.1,2.1c0,1.2-0.9,2.1-2.1,2.1s-2.1-0.9-2.1-2.1C106.5,120.2,107.4,119.3,108.6,119.3z"/>
		<path class="st23" d="M168.7,111.8c0,0-11.1-1.4-20.4-3.5c0.9,21.3,3,50.5,3,50.5s10.9-7.7,27.9-12c-5.1-12.3-4.8-31-4.8-31
			l2.3-1.4l-0.3-9.9c0,0-2.2-2.4-3-2.6c-4.2-29.9-24.7-33.3-24.7-33.3s-1.4,19.7,0,30.8c6.5,1.8,20.1,6.1,20.1,6.1L168.7,111.8z
			 M166.6,138.5c0-1.2,1-2.2,2.2-2.2s2.2,1,2.2,2.2c0,1.2-1,2.2-2.2,2.2S166.6,139.7,166.6,138.5z M158.7,120.2
			c0,1.9-1.6,3.5-3.5,3.5c-1.9,0-3.5-1.6-3.5-3.5c0-1.9,1.6-3.5,3.5-3.5C157.1,116.7,158.7,118.2,158.7,120.2z M160.5,141.6
			c0,1.9-1.5,3.4-3.4,3.4s-3.4-1.5-3.4-3.4c0-1.9,1.5-3.4,3.4-3.4S160.5,139.7,160.5,141.6z M169.7,121.4c0,1.2-0.9,2.1-2.1,2.1
			c-1.2,0-2.1-0.9-2.1-2.1c0-1.2,0.9-2.1,2.1-2.1C168.7,119.3,169.7,120.2,169.7,121.4z"/>
		<path class="st23" d="M148.3,162.2c0,0-5.3-57.3-2.7-95.6c-3.5-3-6.3-3.3-6.3-3.3v13.3h-0.7h-1.2h-0.7V63.2c0,0-2.8,0.3-6.3,3.3
			c2.7,38.4-2.7,95.6-2.7,95.6s4.7,2,8.7,4.7c-0.1-13.7,0.3-38,0.3-38h0.6h1.2h0.6c0,0,0.4,24.3,0.3,38
			C143.6,164.2,148.3,162.2,148.3,162.2z"/>
	</g>
</g>
<g>
	<path class="st24" d="M107.4,105.4c0,0,13.7-4.3,20.1-6.1c1.4-11,0-30.8,0-30.8S107,72,102.8,101.9c-0.9,0.2-3,2.6-3,2.6l-0.3,9.9
		l2.3,1.4c0,0,0.3,18.7-4.8,31c17,4.3,27.9,12,27.9,12s2.2-29.2,3-50.5c-9.2,2.2-20.4,3.5-20.4,3.5L107.4,105.4z M107.4,140.7
		c-1.2,0-2.2-1-2.2-2.2c0-1.2,1-2.2,2.2-2.2c1.2,0,2.2,1,2.2,2.2C109.5,139.7,108.6,140.7,107.4,140.7z M121,116.7
		c1.9,0,3.5,1.6,3.5,3.5c0,1.9-1.6,3.5-3.5,3.5c-1.9,0-3.5-1.6-3.5-3.5C117.5,118.2,119.1,116.7,121,116.7z M119.1,138.2
		c1.9,0,3.4,1.5,3.4,3.4c0,1.9-1.5,3.4-3.4,3.4s-3.4-1.5-3.4-3.4C115.6,139.7,117.2,138.2,119.1,138.2z M108.6,119.3
		c1.2,0,2.1,0.9,2.1,2.1c0,1.2-0.9,2.1-2.1,2.1s-2.1-0.9-2.1-2.1C106.5,120.2,107.4,119.3,108.6,119.3z"/>
	<path class="st24" d="M168.7,111.8c0,0-11.1-1.4-20.4-3.5c0.9,21.3,3,50.5,3,50.5s10.9-7.7,27.9-12c-5.1-12.3-4.8-31-4.8-31
		l2.3-1.4l-0.3-9.9c0,0-2.2-2.4-3-2.6c-4.2-29.9-24.7-33.3-24.7-33.3s-1.4,19.7,0,30.8c6.5,1.8,20.1,6.1,20.1,6.1L168.7,111.8z
		 M166.6,138.5c0-1.2,1-2.2,2.2-2.2s2.2,1,2.2,2.2c0,1.2-1,2.2-2.2,2.2S166.6,139.7,166.6,138.5z M158.7,120.2
		c0,1.9-1.6,3.5-3.5,3.5c-1.9,0-3.5-1.6-3.5-3.5c0-1.9,1.6-3.5,3.5-3.5C157.1,116.7,158.7,118.2,158.7,120.2z M160.5,141.6
		c0,1.9-1.5,3.4-3.4,3.4s-3.4-1.5-3.4-3.4c0-1.9,1.5-3.4,3.4-3.4S160.5,139.7,160.5,141.6z M169.7,121.4c0,1.2-0.9,2.1-2.1,2.1
		c-1.2,0-2.1-0.9-2.1-2.1c0-1.2,0.9-2.1,2.1-2.1C168.7,119.3,169.7,120.2,169.7,121.4z"/>
	<path class="st24" d="M148.3,162.2c0,0-5.3-57.3-2.7-95.6c-3.5-3-6.3-3.3-6.3-3.3v13.3h-0.7h-1.2h-0.7V63.2c0,0-2.8,0.3-6.3,3.3
		c2.7,38.4-2.7,95.6-2.7,95.6s4.7,2,8.7,4.7c-0.1-13.7,0.3-38,0.3-38h0.6h1.2h0.6c0,0,0.4,24.3,0.3,38
		C143.6,164.2,148.3,162.2,148.3,162.2z"/>
</g>
</svg>
