<?xml version="1.0" encoding="utf-8"?>
<!-- Generator: Adobe Illustrator 25.2.1, SVG Export Plug-In . SVG Version: 6.00 Build 0)  -->
<svg version="1.1" id="Layer_1" xmlns="http://www.w3.org/2000/svg" xmlns:xlink="http://www.w3.org/1999/xlink" x="0px" y="0px"
	 width="160px" height="160px" viewBox="0 0 160 160" style="enable-background:new 0 0 160 160;" xml:space="preserve">
<style type="text/css">
	.st0{fill:#F18C15;}
	.st1{filter:url(#Adobe_OpacityMaskFilter);}
	.st2{filter:url(#Adobe_OpacityMaskFilter_1_);}
	.st3{mask:url(#SVGID_1_);fill:url(#SVGID_2_);}
	.st4{fill:url(#SVGID_3_);}
	.st5{fill:#E7358A;}
	.st6{filter:url(#Adobe_OpacityMaskFilter_2_);}
	.st7{filter:url(#Adobe_OpacityMaskFilter_3_);}
	.st8{mask:url(#SVGID_4_);fill:url(#SVGID_5_);}
	.st9{fill:url(#SVGID_6_);}
	.st10{fill:#E4094D;}
	.st11{fill:url(#SVGID_7_);}
	.st12{fill:url(#SVGID_8_);}
	.st13{filter:url(#Adobe_OpacityMaskFilter_4_);}
	.st14{filter:url(#Adobe_OpacityMaskFilter_5_);}
	.st15{mask:url(#SVGID_9_);fill:url(#SVGID_10_);}
	.st16{fill:url(#SVGID_11_);}
	.st17{fill:#DC0256;}
	.st18{fill:#F9B300;}
	.st19{fill:#E62D88;}
	.st20{fill:#47A1D9;}
	.st21{fill:#3A75BA;}
	.st22{fill:#2E4756;}
	.st23{fill:none;stroke:#2E4756;stroke-miterlimit:10;}
	.st24{fill:#FFFFFF;}
</style>
<g>
	<path class="st0" d="M147.1,54.4c0,0-0.1,16.8-72.6,20.6c-72.4,3.8-54.5,81.8-54.5,81.8s-10-52,65.2-52.2
		C150.4,101.3,147.1,54.4,147.1,54.4z"/>
	<g>
		<defs>
			<filter id="Adobe_OpacityMaskFilter" filterUnits="userSpaceOnUse" x="19.2" y="54.4" width="127.9" height="102.4">
				<feFlood  style="flood-color:white;flood-opacity:1" result="back"/>
				<feBlend  in="SourceGraphic" in2="back" mode="normal"/>
			</filter>
		</defs>
		<mask maskUnits="userSpaceOnUse" x="19.2" y="54.4" width="127.9" height="102.4" id="SVGID_1_">
			<g class="st1">
				<defs>
					<filter id="Adobe_OpacityMaskFilter_1_" filterUnits="userSpaceOnUse" x="19.2" y="54.4" width="127.9" height="102.4">
						<feFlood  style="flood-color:white;flood-opacity:1" result="back"/>
						<feBlend  in="SourceGraphic" in2="back" mode="normal"/>
					</filter>
				</defs>
				<mask maskUnits="userSpaceOnUse" x="19.2" y="54.4" width="127.9" height="102.4" id="SVGID_1_">
					<g class="st2">
					</g>
				</mask>
				<linearGradient id="SVGID_2_" gradientUnits="userSpaceOnUse" x1="149.458" y1="83.6588" x2="65.5042" y2="111.6435">
					<stop  offset="0" style="stop-color:#FFFFFF"/>
					<stop  offset="1" style="stop-color:#000000"/>
				</linearGradient>
				<path class="st3" d="M147.1,54.4C147.1,54.4,147.1,54.4,147.1,54.4c0,0.7-1.8,36.2-61.5,37.2c-60.3,1-69.2,46.6-65.8,64.2
					c0.1,0.7,0.2,1,0.2,1s-10-52,65.2-52.2C150.4,101.3,147.1,54.4,147.1,54.4z"/>
			</g>
		</mask>
		<linearGradient id="SVGID_3_" gradientUnits="userSpaceOnUse" x1="149.458" y1="83.6588" x2="65.5042" y2="111.6435">
			<stop  offset="0" style="stop-color:#F6A851"/>
			<stop  offset="1" style="stop-color:#F6A851"/>
		</linearGradient>
		<path class="st4" d="M147.1,54.4C147.1,54.4,147.1,54.4,147.1,54.4c0,0.7-1.8,36.2-61.5,37.2c-60.3,1-69.2,46.6-65.8,64.2
			c0.1,0.7,0.2,1,0.2,1s-10-52,65.2-52.2C150.4,101.3,147.1,54.4,147.1,54.4z"/>
	</g>
	<path class="st5" d="M147.1,52.3c0,0-15.8,13.5-64.2,2.7c-54-5.6-72.3,34.9-70.1,60.1c0,0,7.9-49.7,74.6-32.3
		C149.4,86.3,147.1,52.3,147.1,52.3z"/>
	<defs>
		<filter id="Adobe_OpacityMaskFilter_2_" filterUnits="userSpaceOnUse" x="12.7" y="52.7" width="134.3" height="61.9">
			<feFlood  style="flood-color:white;flood-opacity:1" result="back"/>
			<feBlend  in="SourceGraphic" in2="back" mode="normal"/>
		</filter>
	</defs>
	<mask maskUnits="userSpaceOnUse" x="12.7" y="52.7" width="134.3" height="61.9" id="SVGID_4_">
		<g class="st6">
			<defs>
				<filter id="Adobe_OpacityMaskFilter_3_" filterUnits="userSpaceOnUse" x="12.7" y="52.7" width="134.3" height="61.9">
					<feFlood  style="flood-color:white;flood-opacity:1" result="back"/>
					<feBlend  in="SourceGraphic" in2="back" mode="normal"/>
				</filter>
			</defs>
			<mask maskUnits="userSpaceOnUse" x="12.7" y="52.7" width="134.3" height="61.9" id="SVGID_4_">
				<g class="st7">
				</g>
			</mask>
			<linearGradient id="SVGID_5_" gradientUnits="userSpaceOnUse" x1="12.7335" y1="83.6767" x2="147.0742" y2="83.6767">
				<stop  offset="0" style="stop-color:#FFFFFF"/>
				<stop  offset="1" style="stop-color:#000000"/>
			</linearGradient>
			<path class="st8" d="M87.3,82.4c56.3,3.2,59.6-24.5,59.8-29.7c-4.5,11.5-19.6,21.5-60.9,13.9C19,54.1,12.7,114.6,12.7,114.6
				S20.6,64.9,87.3,82.4z"/>
		</g>
	</mask>
	<linearGradient id="SVGID_6_" gradientUnits="userSpaceOnUse" x1="12.7335" y1="83.6767" x2="147.0742" y2="83.6767">
		<stop  offset="0" style="stop-color:#E85B9B"/>
		<stop  offset="1" style="stop-color:#E7358A"/>
	</linearGradient>
	<path class="st9" d="M87.3,82.4c56.3,3.2,59.6-24.5,59.8-29.7c-4.5,11.5-19.6,21.5-60.9,13.9C19,54.1,12.7,114.6,12.7,114.6
		S20.6,64.9,87.3,82.4z"/>
	<path class="st10" d="M32.7,58.7c0,0,22.9-24.7,60.4-2.3c37.5,22.4,54-2,54-2s-8.6-32.9-63-30.3C41.1,29.7,32.7,58.7,32.7,58.7z"/>
	<linearGradient id="SVGID_7_" gradientUnits="userSpaceOnUse" x1="84.1635" y1="30.413" x2="147.1198" y2="30.413">
		<stop  offset="0" style="stop-color:#C53B8D"/>
		<stop  offset="1" style="stop-color:#654292"/>
	</linearGradient>
	<path class="st11" d="M85.7,3.1c0,0-11.2,28.8,26.2,36.8c37.4,8.1,34.6,17.8,34.6,17.8s7.2-22.6-27-33.9
		C85.2,12.4,85.7,3.1,85.7,3.1z"/>
	<g>
		<linearGradient id="SVGID_8_" gradientUnits="userSpaceOnUse" x1="74.8924" y1="11.8333" x2="143.0458" y2="51.0133">
			<stop  offset="0" style="stop-color:#C53B8D"/>
			<stop  offset="1" style="stop-color:#59388D"/>
		</linearGradient>
		<path class="st12" d="M86.9,24c3.4,6.5,10.5,12.8,25.1,15.9c26.7,5.8,32.9,12.4,34.3,15.7c0.4-0.5,0.7-0.9,0.9-1.1
			c0-0.1,0-0.2,0-0.3C146.3,51.5,136.5,22.6,86.9,24z"/>
	</g>
	<g>
		<defs>
			<filter id="Adobe_OpacityMaskFilter_4_" filterUnits="userSpaceOnUse" x="32.7" y="38.3" width="112.8" height="27.5">
				<feFlood  style="flood-color:white;flood-opacity:1" result="back"/>
				<feBlend  in="SourceGraphic" in2="back" mode="normal"/>
			</filter>
		</defs>
		<mask maskUnits="userSpaceOnUse" x="32.7" y="38.3" width="112.8" height="27.5" id="SVGID_9_">
			<g class="st13">
				<defs>
					<filter id="Adobe_OpacityMaskFilter_5_" filterUnits="userSpaceOnUse" x="32.7" y="38.3" width="112.8" height="27.5">
						<feFlood  style="flood-color:white;flood-opacity:1" result="back"/>
						<feBlend  in="SourceGraphic" in2="back" mode="normal"/>
					</filter>
				</defs>
				<mask maskUnits="userSpaceOnUse" x="32.7" y="38.3" width="112.8" height="27.5" id="SVGID_9_">
					<g class="st14">
					</g>
				</mask>
				<linearGradient id="SVGID_10_" gradientUnits="userSpaceOnUse" x1="32.7302" y1="52.0807" x2="145.5624" y2="52.0807">
					<stop  offset="0" style="stop-color:#FFFFFF"/>
					<stop  offset="1" style="stop-color:#000000"/>
				</linearGradient>
				<path class="st15" d="M93.1,56.4c30.9,18.5,47.5,5.2,52.4-0.1c-23.9,5.6-48.8-12.7-48.8-12.7c-45-17.8-64.1,15.1-64.1,15.1
					S55.6,34,93.1,56.4z"/>
			</g>
		</mask>
		<linearGradient id="SVGID_11_" gradientUnits="userSpaceOnUse" x1="32.7302" y1="52.0807" x2="145.5624" y2="52.0807">
			<stop  offset="0" style="stop-color:#E63254"/>
			<stop  offset="1" style="stop-color:#E51456"/>
		</linearGradient>
		<path class="st16" d="M93.1,56.4c30.9,18.5,47.5,5.2,52.4-0.1c-23.9,5.6-48.8-12.7-48.8-12.7c-45-17.8-64.1,15.1-64.1,15.1
			S55.6,34,93.1,56.4z"/>
	</g>
	<g>
		<g>
			<path class="st17" d="M146.6,52.7c-3,2-17.4,10.1-52,4.5c35.2,20.2,51.4-1.2,52.5-2.7c0-0.1,0-0.2,0-0.2
				C147,54,146.9,53.5,146.6,52.7z"/>
		</g>
	</g>
	<path class="st18" d="M88.8,104.3c-3.2-0.6-6.5-1.3-10.1-2.2c-45.1-10.7-54.2,2.6-54.7,3.4c0,0.1-0.1,0.2-0.1,0.3
		c-0.3,0.7-1.3,3.2-2.3,6.3c-0.9,2.9-1.6,5.9-2.1,8.8c0,0.2-1.5,11.6,0.3,26.7c1.1-14.9,10.5-42.8,65.5-43
		C86.5,104.5,87.6,104.4,88.8,104.3z"/>
	<g>
		<g>
			<path class="st19" d="M74.5,75c-9.4,0.5-17.3,2.2-23.8,4.9c9.6-1.6,21.7-1,36.7,2.9c51,2.9,58.5-19.6,59.6-27.7
				C146,58.3,138.2,71.7,74.5,75z"/>
		</g>
	</g>
</g>
<g>
	<ellipse class="st20" cx="86.9" cy="73.7" rx="44.2" ry="44.7"/>
	<path class="st21" d="M118.1,105.3c-56.5-24.5-4.8-37.8-62.5-63.2c17.3-17.4,45.2-17.4,62.5,0S135.4,87.9,118.1,105.3z"/>
	<path class="st22" d="M53.7,107.2c-18.3-18.5-18.3-48.6,0-67.1s48.1-18.5,66.3,0s18.3,48.6,0,67.1S72,125.7,53.7,107.2z
		 M116.2,44.1c-16.2-16.3-42.5-16.3-58.6,0s-16.2,42.9,0,59.3s42.5,16.3,58.6,0S132.4,60.4,116.2,44.1z"/>
	<g>
		<g>
			<path class="st23" d="M103.6,49.9c0,0,16.9,12.1,14,30c-2.4-6.7-10.5-17.1-18.8-22c1.4-1.4,4.5-6.4,4.5-6.4L103.6,49.9z"/>
			<path class="st23" d="M68.1,93.9l30.3-46.1c0,0,3.6-1.6,3.3,2.3c-1.4,1.8-29.2,44.3-30.3,45.8C68,97.2,68.1,93.9,68.1,93.9z"/>
		</g>
		<g>
			<path class="st23" d="M70.5,49.9c0,0-16.9,12.1-14,30c2.4-6.7,10.5-17.1,18.8-22c-1.4-1.4-4.5-6.4-4.5-6.4L70.5,49.9z"/>
			<path class="st23" d="M106.1,93.9L75.8,47.8c0,0-3.6-1.6-3.3,2.3c1.4,1.8,29.2,44.3,30.3,45.8C106.1,97.2,106.1,93.9,106.1,93.9z
				"/>
		</g>
	</g>
	<g>
		<g>
			<path class="st24" d="M103.6,49.9c0,0,16.9,12.1,14,30c-2.4-6.7-10.5-17.1-18.8-22c1.4-1.4,4.5-6.4,4.5-6.4L103.6,49.9z"/>
			<path class="st24" d="M68.1,93.9l30.3-46.1c0,0,3.6-1.6,3.3,2.3c-1.4,1.8-29.2,44.3-30.3,45.8C68,97.2,68.1,93.9,68.1,93.9z"/>
		</g>
		<g>
			<path class="st24" d="M70.5,49.9c0,0-16.9,12.1-14,30c2.4-6.7,10.5-17.1,18.8-22c-1.4-1.4-4.5-6.4-4.5-6.4L70.5,49.9z"/>
			<path class="st24" d="M106.1,93.9L75.8,47.8c0,0-3.6-1.6-3.3,2.3c1.4,1.8,29.2,44.3,30.3,45.8C106.1,97.2,106.1,93.9,106.1,93.9z
				"/>
		</g>
	</g>
</g>
</svg>
